- 
http://www.Speed.Cd 
       
http://www.Speed.Cd      fast  and The Hottest Private Tracker on the net

(((--Submit for invite!!--)))

Please Seed back to make the speed Faster!!!

------------------nfo--------------------------
-[img]http://img204.imageshack.us/img204/2329/sympathyfordelicious1.jpg[/img]


[color=blue][size=5][b]Sympathy.for.Delicious.2010.BDRip.XVID.AC3.HQ.Hive-CM8[/b][/size][/color]


[b]Thx Hive

CM8 Doing It Right The First Time :D


Source: Bluray

Video: 720x400 @bitrate 1800 2pass
Audio: English DTS to AC3 5.1 @448
Sample: yes included
Subs: yes english in srt /subs[/b]


[url]http://www.imdb.com/title/tt1270277/[/url]


General
Complete name                    : Sympathy.for.Delicious.2010.BDRip.XVID.AC3.HQ.Hive-CM8.avi
Format                           : AVI
Format/Info                      : Audio Video Interleave
File size                        : 1.60 GiB
Duration                         : 1h 41mn
Overall bit rate                 : 2 257 Kbps
Writing application              : Nandub v1.0rc2
Writing library                  : Nandub build 1853/release

Video
ID                               : 0
Format                           : MPEG-4 Visual
Format profile                   : Advanced Simple@L5
Format settings, BVOP            : 1
Format settings, QPel            : Yes
Format settings, GMC             : No warppoints
Format settings, Matrix          : Default (H.263)
Muxing mode                      : Packed bitstream
Codec ID                         : XVID
Codec ID/Hint                    : XviD
Duration                         : 1h 41mn
Bit rate                         : 1 800 Kbps
Width                            : 720 pixels
Height                           : 400 pixels
Display aspect ratio             : 16:9
Frame rate                       : 23.976 fps
Color space                      : YUV
Chroma subsampling               : 4:2:0
Bit depth                        : 8 bits
Scan type                        : Progressive
Compression mode                 : Lossy
Bits/(Pixel*Frame)               : 0.261
Stream size                      : 1.27 GiB (80%)
Writing library                  : XviD 1.2.1 (UTC 2008-12-04)

Audio
ID                               : 1
Format                           : AC-3
Format/Info                      : Audio Coding 3
Mode extension                   : CM (complete main)
Codec ID                         : 2000
Duration                         : 1h 41mn
Bit rate mode                    : Constant
Bit rate                         : 448 Kbps
Channel(s)                       : 6 channels
Channel positions                : Front: L C R, Side: L R, LFE
Sampling rate                    : 48.0 KHz
Bit depth                        : 16 bits
Compression mode                 : Lossy
Stream size                      : 324 MiB (20%)
Alignment                        : Split accross interleaves
Interleave, duration             : 42 ms (1.00 video frame)
Interleave, preload duration     : 500 ms


Plot:
A newly paralyzed DJ gets more than he bargained for when he
seeks out the world of faith healing.


Cast:
Christopher Thornton  ...   'Delicious' Dean O'Dwyer
Mark Ruffalo          ...   Joe
Orlando Bloom         ...   The Stain
Juliette Lewis        ...   Ariel Lee
Laura Linney          ...   Nina Hogue


[img]http://img805.imageshack.us/img805/1377/ssyy.png[/img]
[img]http://img718.imageshack.us/img718/1730/ssyysssyysyy.png[/img]
[img]http://img109.imageshack.us/img109/7990/ssyyssyy.png[/img]
[img]http://img13.imageshack.us/img13/4797/ssyysy.png[/img]
[img]http://img819.imageshack.us/img819/7375/ssysy.png[/img]
[img]http://img31.imageshack.us/img31/2707/ssyyssysyy.png[/img]



Greetz

ViSiON,SiC,SANTi,3LT0N,YanKeeS,MAGNET,THC,T0XiC,LKRG,FANTASIA-PLAY,FANTASIA-M,BHRG,WBZ
D2U,IMAGiNE,FLAWL3SS,NOVA,Vik,Rapeseed,SAFC,goldadvance,MEMORY100,scumbag,Hero5,Pinnz
Unevano,KaN1vE,Wayne,cedrict wink,Mr Hive and all P2P groups
Great Work Guys :D

FYS

CM8@hushmail.com